<svg xmlns="http://www.w3.org/2000/svg" width="781" height="887" viewBox="0 0 781 887" fill="none"><path opacity="0.2" d="M670.428 652.681V602.899H675.404C688.749 602.899 699.57 592.1 699.57 578.778V378.578C699.57 365.258 688.751 354.457 675.404 354.457H607.983V222.333C607.983 200.347 590.127 182.522 568.098 182.522H478.416V177.519C478.416 155.533 460.56 137.708 438.531 137.708H145.848C115.714 137.708 91.2854 162.091 91.2854 192.169V385.813H75.5778C61.4863 385.813 50.0633 397.215 50.0633 411.28V526.488C50.0633 540.553 61.4863 551.955 75.5778 551.955H99.2211C109.633 551.955 118.074 560.381 118.074 570.773V652.679H64.1404C44.1988 652.679 28.0312 668.816 28.0312 688.721V870.961H752.971V688.721C752.971 668.814 736.803 652.679 716.862 652.679H670.428V652.681Z" fill="#E6E8EF"></path><path d="M77.9151 640.01H51.2324V613.377H77.9151V640.01ZM55.7795 635.474H73.3704V617.916H55.7795V635.474Z" fill="#1A4876"></path><path d="M775.634 767.124C780.914 768.941 774.907 803.555 757.615 870.966C751.702 870.966 745.447 870.966 738.928 870.966C748.398 844.96 757.28 818.734 765.753 792.377C766.213 790.94 765.35 790.685 764.828 792.055C754.831 818.14 745.361 844.46 736.488 870.966C731.527 870.966 726.421 870.966 721.202 870.966C751.919 799.824 770.061 765.21 775.634 767.124Z" fill="#BBC1F9"></path><path d="M764.829 792.053C765.352 790.682 766.212 790.937 765.754 792.375C757.282 818.734 748.399 844.958 738.929 870.963C738.123 870.963 737.309 870.963 736.492 870.963C745.362 844.46 754.832 818.137 764.829 792.053Z" fill="#8338EA"></path><path d="M709.331 870.964C702.659 870.964 696.007 870.964 689.437 870.964L689.606 863.571L689.955 850.574C690.487 833.246 691.022 815.919 691.554 798.584C692.643 763.913 693.729 729.231 694.818 694.557C694.902 691.79 693.999 691.834 693.835 694.509C691.74 729.118 690.083 763.79 688.932 798.478C688.356 815.823 687.939 833.172 687.696 850.521L687.573 863.533L687.564 870.961C680.047 870.961 672.648 870.961 665.442 870.961C679.731 712.385 689.274 656.804 695.74 657.056C702.185 657.306 707.368 713.07 709.331 870.964Z" fill="#BBC1F9"></path><path d="M693.832 694.514C693.996 691.838 694.899 691.795 694.815 694.562C693.726 729.234 692.64 763.917 691.551 798.589C691.019 815.924 690.484 833.251 689.952 850.578L689.603 863.576L689.434 870.968C688.811 870.968 688.182 870.968 687.561 870.968L687.57 863.54L687.693 850.528C687.936 833.179 688.353 815.83 688.929 798.486C690.08 763.795 691.737 729.123 693.832 694.514Z" fill="#8338EA"></path><path d="M672.618 870.964C668.723 870.964 664.896 870.964 661.144 870.964C660.684 832.979 659.107 794.976 656.821 757.023C656.727 755.41 655.829 755.494 655.846 757.059C656.183 795.034 657.445 833.056 659.73 870.964C654.451 870.964 649.331 870.964 644.413 870.964C645.832 782.923 650.725 724.236 654.863 724.106C659.239 723.969 665.161 772.93 672.618 870.964Z" fill="#B6A6F9"></path><path d="M661.144 870.964C660.67 870.964 660.2 870.964 659.731 870.964C657.445 833.056 656.183 795.034 655.846 757.059C655.829 755.494 656.727 755.41 656.821 757.023C659.107 794.978 660.684 832.979 661.144 870.964Z" fill="#8338EA"></path><path d="M651.416 870.964C647.58 870.964 643.878 870.964 640.333 870.964C635.112 845.634 629.021 820.477 622.376 795.462C622.065 794.281 621.198 794.524 621.42 795.683C626.319 820.929 631.954 846.059 638.389 870.964C632.768 870.964 627.568 870.964 622.872 870.964C614.407 806.616 612.42 773.978 616.923 773.06C621.555 772.117 633.052 804.75 651.416 870.964Z" fill="#B6A6F9"></path><path d="M640.33 870.964C639.675 870.964 639.032 870.964 638.386 870.964C631.953 846.059 626.315 820.928 621.417 795.683C621.195 794.524 622.06 794.281 622.373 795.461C629.018 820.477 635.111 845.633 640.33 870.964Z" fill="#8338EA"></path><path d="M761.677 711.647C766.427 713.154 754.751 766.254 726.657 870.966C721.077 870.966 715.419 870.966 709.728 870.966C724.381 828.708 738.309 786.166 751.755 743.484C752.424 741.357 751.555 741.133 750.825 743.174C735.744 785.517 721.277 828.15 707.537 870.966C703.31 870.966 699.066 870.966 694.82 870.966C734.503 763.208 756.788 710.096 761.677 711.647Z" fill="#B6A6F9"></path><path d="M750.826 743.174C751.553 741.136 752.425 741.357 751.755 743.484C738.312 786.163 724.381 828.708 709.729 870.966C709.001 870.966 708.267 870.966 707.537 870.966C721.277 828.148 735.744 785.517 750.826 743.174Z" fill="#8338EA"></path><path d="M317.583 529.221H317.564C315.38 529.221 313.619 530.988 313.619 533.168C313.619 535.346 315.399 537.115 317.583 537.115C319.768 537.115 321.538 535.349 321.538 533.168C321.538 530.988 319.768 529.221 317.583 529.221ZM317.583 553.996H317.564C315.38 553.996 313.619 555.763 313.619 557.943C313.619 560.123 315.399 561.89 317.583 561.89C319.768 561.89 321.538 560.123 321.538 557.943C321.538 555.763 319.768 553.996 317.583 553.996ZM317.583 603.545H317.564C315.38 603.545 313.619 605.312 313.619 607.492C313.619 609.673 315.399 611.44 317.583 611.44C319.768 611.44 321.538 609.673 321.538 607.492C321.538 605.312 319.768 603.545 317.583 603.545ZM317.583 578.77H317.564C315.38 578.77 313.619 580.537 313.619 582.718C313.619 584.898 315.399 586.665 317.583 586.665C319.768 586.665 321.538 584.898 321.538 582.718C321.538 580.537 319.768 578.77 317.583 578.77ZM345.848 454.894H345.829C343.645 454.894 341.886 456.661 341.886 458.842C341.886 461.02 343.666 462.789 345.851 462.789C348.035 462.789 349.805 461.022 349.805 458.842C349.803 456.659 348.033 454.894 345.848 454.894ZM317.583 504.446H317.564C315.38 504.446 313.619 506.213 313.619 508.393C313.619 510.574 315.399 512.341 317.583 512.341C319.768 512.341 321.538 510.574 321.538 508.393C321.538 506.213 319.768 504.446 317.583 504.446ZM289.316 561.888C291.5 561.888 293.27 560.121 293.27 557.941C293.27 555.76 291.5 553.993 289.316 553.993H289.297C287.112 553.993 285.352 555.76 285.352 557.941C285.354 560.121 287.134 561.888 289.316 561.888ZM289.316 586.662C291.5 586.662 293.27 584.896 293.27 582.715C293.27 580.537 291.5 578.768 289.316 578.768H289.297C287.112 578.768 285.352 580.535 285.352 582.715C285.354 584.896 287.134 586.662 289.316 586.662ZM317.583 430.117H317.564C315.38 430.117 313.619 431.884 313.619 434.065C313.619 436.242 315.399 438.012 317.583 438.012C319.768 438.012 321.538 436.245 321.538 434.065C321.538 431.887 319.768 430.117 317.583 430.117ZM317.583 454.894H317.564C315.38 454.894 313.619 456.661 313.619 458.842C313.619 461.02 315.399 462.789 317.583 462.789C319.768 462.789 321.538 461.022 321.538 458.842C321.538 456.659 319.768 454.894 317.583 454.894ZM317.583 479.669H317.564C315.38 479.669 313.619 481.436 313.619 483.616C313.619 485.794 315.399 487.561 317.583 487.561C319.768 487.561 321.538 485.794 321.538 483.616C321.538 481.434 319.768 479.669 317.583 479.669ZM402.378 537.115C404.56 537.115 406.333 535.349 406.333 533.168C406.333 530.988 404.562 529.221 402.378 529.221H402.359C400.174 529.221 398.414 530.988 398.414 533.168C398.414 535.346 400.194 537.115 402.378 537.115ZM402.378 512.338C404.56 512.338 406.333 510.571 406.333 508.391C406.333 506.211 404.562 504.444 402.378 504.444H402.359C400.174 504.444 398.414 506.211 398.414 508.391C398.414 510.571 400.194 512.338 402.378 512.338ZM400.837 487.251C401.311 487.451 401.831 487.561 402.378 487.561C402.956 487.561 403.496 487.424 403.989 487.203C404.006 487.196 404.016 487.181 404.033 487.174C404.514 486.951 404.931 486.633 405.283 486.244C405.918 485.544 406.333 484.636 406.333 483.616C406.333 481.438 404.562 479.669 402.378 479.669H402.359C400.174 479.669 398.414 481.436 398.414 483.616C398.414 485.249 399.416 486.653 400.837 487.251ZM292.112 604.701C291.996 604.584 291.833 604.526 291.703 604.425C291.033 603.906 290.231 603.545 289.316 603.545H289.294C287.11 603.545 285.352 605.312 285.352 607.492C285.352 608.565 285.79 609.531 286.486 610.24C286.488 610.242 286.488 610.245 286.488 610.245C287.209 610.978 288.206 611.437 289.313 611.437C289.523 611.437 289.701 611.351 289.904 611.319H289.906C289.908 611.319 289.911 611.317 289.913 611.317C290.845 611.17 291.662 610.742 292.257 610.065C292.353 609.961 292.408 609.831 292.493 609.716C292.671 609.464 292.863 609.223 292.979 608.93C293.157 608.492 293.263 608.016 293.266 607.509C293.266 607.502 293.268 607.497 293.268 607.492C293.268 606.492 292.863 605.603 292.247 604.906C292.196 604.843 292.17 604.759 292.112 604.701ZM289.316 537.115C291.5 537.115 293.27 535.349 293.27 533.168C293.27 530.988 291.5 529.221 289.316 529.221H289.297C287.112 529.221 285.352 530.988 285.352 533.168C285.354 535.346 287.134 537.115 289.316 537.115ZM345.848 578.77H345.829C343.645 578.77 341.886 580.537 341.886 582.718C341.886 584.898 343.666 586.665 345.851 586.665C348.035 586.665 349.805 584.898 349.805 582.718C349.803 580.537 348.033 578.77 345.848 578.77ZM345.848 504.446H345.829C343.645 504.446 341.886 506.213 341.886 508.393C341.886 510.574 343.666 512.341 345.851 512.341C348.035 512.341 349.805 510.574 349.805 508.393C349.805 506.213 348.033 504.446 345.848 504.446ZM345.848 529.221H345.829C343.645 529.221 341.886 530.988 341.886 533.168C341.886 535.346 343.666 537.115 345.851 537.115C348.035 537.115 349.805 535.349 349.805 533.168C349.803 530.988 348.033 529.221 345.848 529.221ZM345.848 553.996H345.829C343.645 553.996 341.886 555.763 341.886 557.943C341.886 560.123 343.666 561.89 345.851 561.89C348.035 561.89 349.805 560.123 349.805 557.943C349.803 555.763 348.033 553.996 345.848 553.996ZM345.848 479.669H345.829C343.645 479.669 341.886 481.436 341.886 483.616C341.886 485.794 343.666 487.561 345.851 487.561C348.035 487.561 349.805 485.794 349.805 483.616C349.803 481.434 348.033 479.669 345.848 479.669ZM374.113 454.894H374.091C371.907 454.894 370.146 456.661 370.146 458.842C370.146 461.02 371.929 462.789 374.113 462.789C376.298 462.789 378.068 461.022 378.068 458.842C378.068 456.659 376.298 454.894 374.113 454.894ZM345.848 438.012C348.033 438.012 349.803 436.245 349.803 434.065C349.803 434.062 349.803 434.062 349.803 434.06C349.8 433.418 349.612 432.839 349.34 432.302C349.314 432.254 349.278 432.216 349.249 432.168C348.962 431.658 348.572 431.242 348.095 430.906C348.095 430.906 348.095 430.906 348.093 430.906C347.447 430.447 346.701 430.122 345.848 430.122H345.829C343.645 430.122 341.884 431.889 341.884 434.069C341.882 436.245 343.664 438.012 345.848 438.012ZM374.113 553.996H374.091C371.907 553.996 370.146 555.763 370.146 557.943C370.146 560.123 371.929 561.89 374.113 561.89C376.298 561.89 378.068 560.123 378.068 557.943C378.068 555.763 376.298 553.996 374.113 553.996ZM374.113 578.77H374.091C371.907 578.77 370.146 580.537 370.146 582.718C370.146 584.898 371.929 586.665 374.113 586.665C376.298 586.665 378.068 584.898 378.068 582.718C378.068 580.537 376.298 578.77 374.113 578.77ZM374.113 479.669H374.091C371.907 479.669 370.146 481.436 370.146 483.616C370.146 485.794 371.929 487.561 374.113 487.561C376.298 487.561 378.068 485.794 378.068 483.616C378.068 481.434 376.298 479.669 374.113 479.669ZM374.113 529.221H374.091C371.907 529.221 370.146 530.988 370.146 533.168C370.146 535.346 371.929 537.115 374.113 537.115C376.298 537.115 378.068 535.349 378.068 533.168C378.068 530.988 376.298 529.221 374.113 529.221ZM232.786 479.669H232.764C232.314 479.669 231.897 479.77 231.507 479.922C231.148 480.044 230.84 480.232 230.537 480.446C230.534 480.446 230.534 480.446 230.532 480.448C229.523 481.162 228.822 482.282 228.822 483.614C228.822 483.782 228.899 483.927 228.918 484.09C228.918 484.09 228.918 484.09 228.918 484.092C228.918 484.097 228.92 484.1 228.92 484.102C229.046 485.064 229.477 485.912 230.168 486.528C230.26 486.612 230.38 486.66 230.479 486.737C230.748 486.936 231.011 487.141 231.326 487.266C231.777 487.451 232.266 487.559 232.786 487.559C234.424 487.559 235.83 486.566 236.43 485.15C236.63 484.679 236.741 484.16 236.741 483.614C236.741 483.068 236.63 482.549 236.43 482.078C235.83 480.662 234.426 479.669 232.786 479.669ZM374.113 504.446H374.091C371.907 504.446 370.146 506.213 370.146 508.393C370.146 510.574 371.929 512.341 374.113 512.341C376.298 512.341 378.068 510.574 378.068 508.393C378.068 506.213 376.298 504.446 374.113 504.446ZM232.786 553.996H232.764C232.266 553.996 231.803 554.106 231.372 554.277C231.153 554.361 230.97 554.493 230.773 554.614C230.604 554.719 230.435 554.813 230.286 554.943C230.028 555.157 229.821 555.402 229.624 555.674C229.585 555.729 229.547 555.782 229.511 555.842C229.296 556.174 229.137 556.522 229.029 556.914C229.029 556.916 229.029 556.916 229.026 556.916C229.026 556.916 229.026 556.916 229.026 556.919C228.935 557.253 228.822 557.578 228.822 557.941C228.822 559.496 229.749 560.811 231.062 561.453C231.062 561.453 231.062 561.453 231.062 561.455H231.064C231.584 561.71 232.15 561.881 232.767 561.883C232.774 561.883 232.779 561.888 232.786 561.888C234.97 561.888 236.741 560.121 236.741 557.941C236.741 557.395 236.63 556.876 236.43 556.404C235.83 554.989 234.426 553.996 232.786 553.996ZM232.786 504.446H232.764C230.58 504.446 228.819 506.213 228.819 508.393C228.819 510.574 230.602 512.341 232.786 512.341C234.97 512.341 236.741 510.574 236.741 508.393C236.741 506.213 234.97 504.446 232.786 504.446ZM232.786 529.221H232.764C230.58 529.221 228.819 530.988 228.819 533.168C228.819 535.346 230.602 537.115 232.786 537.115C234.97 537.115 236.741 535.349 236.741 533.168C236.741 530.988 234.97 529.221 232.786 529.221ZM261.053 504.446H261.032C258.847 504.446 257.089 506.213 257.089 508.393C257.089 510.574 258.871 512.341 261.053 512.341C263.235 512.341 265.008 510.574 265.008 508.393C265.008 506.213 263.235 504.446 261.053 504.446ZM289.316 438.012C291.5 438.012 293.27 436.245 293.27 434.065C293.27 431.884 291.5 430.117 289.316 430.117H289.297C287.112 430.117 285.352 431.884 285.352 434.065C285.354 436.245 287.134 438.012 289.316 438.012ZM289.316 487.561C291.5 487.561 293.27 485.794 293.27 483.616C293.27 481.436 291.5 479.669 289.316 479.669H289.297C287.112 479.669 285.352 481.436 285.352 483.616C285.354 485.794 287.134 487.561 289.316 487.561ZM289.316 462.787C291.5 462.787 293.27 461.02 293.27 458.839C293.27 456.659 291.5 454.892 289.316 454.892H289.297C287.112 454.892 285.352 456.659 285.352 458.839C285.354 461.02 287.134 462.787 289.316 462.787ZM261.053 553.996H261.032C258.847 553.996 257.089 555.763 257.089 557.943C257.089 560.123 258.871 561.89 261.053 561.89C263.235 561.89 265.008 560.123 265.008 557.943C265.008 555.763 263.235 553.996 261.053 553.996ZM261.053 529.221H261.032C258.847 529.221 257.089 530.988 257.089 533.168C257.089 535.346 258.871 537.115 261.053 537.115C263.235 537.115 265.008 535.349 265.008 533.168C265.008 530.988 263.235 529.221 261.053 529.221ZM261.053 454.894H261.032C258.847 454.894 257.089 456.661 257.089 458.842C257.089 461.02 258.871 462.789 261.053 462.789C263.235 462.789 265.008 461.022 265.008 458.842C265.008 456.659 263.235 454.894 261.053 454.894ZM289.316 512.338C291.5 512.338 293.27 510.571 293.27 508.391C293.27 506.211 291.5 504.444 289.316 504.444H289.297C287.112 504.444 285.352 506.211 285.352 508.391C285.352 510.571 287.134 512.338 289.316 512.338ZM261.053 578.77H261.032C258.847 578.77 257.089 580.537 257.089 582.718C257.089 584.898 258.871 586.665 261.053 586.665C263.235 586.665 265.008 584.898 265.008 582.718C265.008 580.537 263.235 578.77 261.053 578.77ZM261.053 479.669H261.032C258.847 479.669 257.089 481.436 257.089 483.616C257.089 485.794 258.871 487.561 261.053 487.561C263.235 487.561 265.008 485.794 265.008 483.616C265.008 481.434 263.235 479.669 261.053 479.669ZM403.847 554.291C403.462 554.133 403.036 554.068 402.6 554.039C402.523 554.034 402.458 553.996 402.381 553.996H402.359C400.174 553.996 398.414 555.763 398.414 557.943C398.414 558.474 398.525 558.974 398.717 559.433C398.85 559.755 399.069 560.02 399.278 560.294C399.36 560.4 399.411 560.527 399.502 560.623C400.16 561.323 401.066 561.751 402.079 561.83C402.084 561.83 402.089 561.835 402.096 561.835C402.195 561.842 402.279 561.893 402.378 561.893C404.56 561.893 406.333 560.126 406.333 557.945C406.335 556.282 405.302 554.873 403.847 554.291ZM345.848 603.545H345.826C344.911 603.545 344.109 603.906 343.442 604.427C343.312 604.528 343.153 604.586 343.038 604.701C342.397 605.343 342.024 606.223 341.947 607.185C341.937 607.29 341.884 607.384 341.884 607.492C341.884 607.98 342 608.435 342.163 608.865C342.216 609.002 342.284 609.122 342.349 609.252C342.496 609.536 342.669 609.793 342.879 610.031C342.98 610.149 343.071 610.269 343.187 610.372C343.505 610.661 343.854 610.913 344.251 611.086H344.254C344.745 611.303 345.28 611.435 345.851 611.435C347.614 611.435 349.054 610.264 349.564 608.673C349.702 608.307 349.796 607.925 349.798 607.512C349.798 607.502 349.803 607.495 349.803 607.488C349.803 605.312 348.03 603.545 345.848 603.545Z" fill="white"></path><path d="M424.911 180.762H394.354V184.967H424.911V180.762Z" fill="white"></path><path d="M424.911 192.842H394.354V197.046H424.911V192.842Z" fill="white"></path><path d="M424.911 168.682H394.354V172.887H424.911V168.682Z" fill="white"></path><path d="M158.176 466.241C159.41 464.909 160.59 463.575 161.642 462.238C168.614 453.394 170.688 445.474 167.482 439.933C163.713 433.413 153.261 431.872 139.998 434.834C135.937 421.889 129.372 413.624 121.829 413.624C114.286 413.624 107.723 421.886 103.662 434.834C90.3993 431.872 79.9492 433.413 76.1777 439.933C72.9721 445.474 75.0458 453.397 82.0181 462.238C83.0705 463.573 84.2506 464.909 85.4837 466.241C84.2506 467.573 83.0705 468.907 82.0181 470.243C75.0458 479.087 72.9721 487.008 76.1777 492.549C78.6945 496.9 84.1061 499.17 91.7167 499.17C93.8024 499.17 96.0518 498.999 98.453 498.655C100.141 498.413 101.89 498.059 103.665 497.658C107.728 510.598 114.288 518.858 121.829 518.858C129.37 518.858 135.932 510.598 139.995 497.658C141.77 498.059 143.521 498.413 145.207 498.655C147.608 499.001 149.858 499.17 151.943 499.17C159.552 499.17 164.966 496.898 167.482 492.549C170.688 487.008 168.614 479.085 161.642 470.243C160.59 468.907 159.41 467.573 158.176 466.241ZM80.2647 442.288C81.8519 439.548 85.9293 438.086 91.7094 438.086C94.8163 438.086 98.4217 438.517 102.388 439.389C101.3 443.764 100.471 448.558 99.9558 453.661C95.8447 456.618 92.09 459.717 88.7929 462.883C87.7019 461.698 86.6615 460.51 85.727 459.325C80.113 452.202 78.1213 445.993 80.2647 442.288ZM99.4886 472.594C96.8177 470.522 94.3442 468.397 92.0972 466.241C94.3442 464.087 96.8177 461.962 99.4886 459.887C99.385 461.969 99.3272 464.085 99.3272 466.241C99.3272 468.397 99.3874 470.513 99.4886 472.594ZM97.7786 493.989C88.7929 495.283 82.4082 493.898 80.2647 490.194C78.1213 486.487 80.113 480.28 85.727 473.157C86.6615 471.972 87.7019 470.784 88.7929 469.599C92.09 472.763 95.8447 475.861 99.9558 478.821C100.474 483.936 101.302 488.739 102.396 493.121C100.823 493.47 99.2718 493.775 97.7786 493.989ZM138.524 450.13C136.751 448.988 134.947 447.865 133.081 446.791C131.207 445.712 129.338 444.702 127.479 443.75C130.677 442.457 133.762 441.392 136.693 440.553C137.428 443.507 138.045 446.714 138.524 450.13ZM121.829 418.336C126.703 418.336 131.898 424.954 135.407 436.009C131.075 437.252 126.511 438.93 121.829 441.034C117.149 438.933 112.585 437.255 108.253 436.012C111.759 424.956 116.954 418.336 121.829 418.336ZM106.967 440.55C109.895 441.392 112.98 442.457 116.179 443.748C114.319 444.699 112.451 445.709 110.577 446.788C108.71 447.863 106.906 448.986 105.134 450.128C105.613 446.714 106.23 443.507 106.967 440.55ZM105.136 482.354C106.909 483.496 108.713 484.619 110.579 485.693C112.443 486.768 114.315 487.763 116.188 488.725C113.05 489.999 109.965 491.076 106.969 491.944C106.232 488.982 105.616 485.773 105.136 482.354ZM121.829 514.146C116.954 514.146 111.759 507.526 108.25 496.47C112.643 495.201 117.207 493.504 121.829 491.429C126.448 493.506 131.012 495.201 135.407 496.47C131.898 507.526 126.703 514.146 121.829 514.146ZM136.691 491.941C133.695 491.076 130.61 489.996 127.472 488.722C129.345 487.763 131.217 486.766 133.081 485.691C134.947 484.616 136.751 483.494 138.524 482.352C138.045 485.773 137.428 488.982 136.691 491.941ZM139.203 476.248C136.51 478.109 133.676 479.907 130.718 481.612C127.763 483.316 124.786 484.864 121.826 486.261C118.867 484.864 115.892 483.314 112.937 481.612C109.98 479.907 107.147 478.109 104.455 476.248C104.19 473.056 104.048 469.712 104.048 466.241C104.048 462.767 104.192 459.426 104.455 456.233C107.147 454.373 109.98 452.575 112.937 450.87C115.952 449.132 118.924 447.589 121.826 446.221C124.731 447.589 127.703 449.132 130.718 450.87C133.676 452.575 136.508 454.373 139.203 456.233C139.468 459.426 139.61 462.767 139.61 466.241C139.61 469.715 139.468 473.056 139.203 476.248ZM151.948 438.086C157.728 438.086 161.808 439.548 163.393 442.288C165.536 445.993 163.545 452.202 157.931 459.325C156.996 460.51 155.956 461.698 154.865 462.883C151.568 459.719 147.815 456.62 143.704 453.664C143.187 448.558 142.36 443.764 141.272 439.389C145.238 438.517 148.841 438.086 151.948 438.086ZM144.172 459.89C146.842 461.962 149.316 464.087 151.563 466.241C149.316 468.395 146.842 470.52 144.172 472.592C144.275 470.51 144.333 468.395 144.333 466.241C144.333 464.087 144.273 461.969 144.172 459.89ZM163.395 490.194C161.252 493.9 154.874 495.283 145.882 493.989C144.386 493.775 142.837 493.468 141.267 493.119C142.36 488.737 143.189 483.934 143.707 478.818C147.818 475.861 151.57 472.763 154.867 469.599C155.958 470.784 156.999 471.972 157.933 473.157C163.547 480.28 165.536 486.489 163.395 490.194Z" fill="white"></path><path d="M675.18 306.181L670.385 306.455C670.086 301.321 668.586 296.385 666.139 291.972L670.335 289.628C668.237 285.863 665.489 282.423 662.218 279.532L659.022 283.121C655.301 279.83 650.855 277.289 645.762 275.842L647.084 271.255L647.033 271.231C643.486 270.233 639.941 269.76 636.444 269.76C635.668 269.76 634.919 269.784 634.17 269.834L634.445 274.62C629.3 274.918 624.356 276.39 619.934 278.858L617.586 274.647C613.814 276.765 610.368 279.483 607.47 282.748L611.066 285.964C607.769 289.654 605.223 294.09 603.774 299.176L599.154 297.854L599.13 297.953C598.131 301.467 597.656 305.008 597.656 308.496C597.656 309.244 597.68 309.992 597.731 310.739L602.526 310.465C602.825 315.6 604.299 320.535 606.746 324.949L602.55 327.292C604.648 331.057 607.369 334.497 610.642 337.413L613.865 333.824C617.562 337.115 622.008 339.656 627.101 341.103L625.779 345.714L625.904 345.738C629.425 346.735 632.973 347.209 636.468 347.209C637.267 347.209 638.04 347.185 638.816 347.134L638.515 342.348C643.659 342.024 648.604 340.552 653.025 338.086L655.374 342.298C659.145 340.18 662.592 337.437 665.489 334.172L661.893 330.982C665.164 327.292 667.712 322.831 669.159 317.747L673.779 319.069V319.045C674.778 315.506 675.252 311.965 675.252 308.475C675.255 307.703 675.231 306.929 675.18 306.181ZM658.449 314.708C655.612 324.752 646.443 331.309 636.468 331.309C634.416 331.309 632.32 331.026 630.225 330.437C620.163 327.605 613.593 318.453 613.593 308.496C613.593 306.448 613.877 304.357 614.467 302.287C617.304 292.222 626.494 285.664 636.448 285.664C638.5 285.664 640.596 285.948 642.691 286.534C652.753 289.366 659.323 298.539 659.323 308.475C659.323 310.525 659.039 312.617 658.449 314.708Z" fill="#E6E8EF"></path><path d="M734.417 283.373L731.245 283.972C730.77 281.503 729.896 279.111 728.673 276.919L731.495 275.349C729.448 271.659 726.524 268.418 722.905 265.976L721.106 268.644C719.058 267.274 716.785 266.176 714.287 265.454L715.186 262.363L715.036 262.339C712.563 261.615 710.041 261.291 707.57 261.291C705.846 261.291 704.124 261.466 702.45 261.788L703.05 264.954C700.576 265.428 698.18 266.301 695.981 267.498L694.408 264.68C690.687 266.724 687.441 269.616 684.994 273.231L687.667 275.051C686.268 277.07 685.194 279.363 684.445 281.83L681.348 280.933L681.297 281.157C680.599 283.626 680.247 286.116 680.247 288.585C680.247 290.304 680.423 291.974 680.722 293.645L683.917 293.046C684.392 295.515 685.242 297.907 686.439 300.102L683.616 301.648C685.639 305.386 688.561 308.626 692.157 311.095L693.98 308.429C696.003 309.826 698.276 310.922 700.771 311.645L699.873 314.737L700.148 314.838C702.619 315.535 705.143 315.86 707.59 315.86C709.389 315.86 711.161 315.684 712.883 315.335L712.259 312.17C714.733 311.696 717.129 310.799 719.328 309.578L720.901 312.42C724.598 310.35 727.844 307.41 730.265 303.794L727.591 301.999C728.964 299.955 730.065 297.686 730.763 295.193L733.86 296.066L733.884 296.015C734.583 293.522 734.935 291.03 734.935 288.563C734.942 286.789 734.768 285.068 734.417 283.373ZM723.254 292.996C721.231 300.15 714.687 304.811 707.594 304.811C706.147 304.811 704.647 304.612 703.175 304.189C696.008 302.169 691.338 295.664 691.311 288.585C691.311 287.114 691.511 285.642 691.935 284.147C693.958 276.993 700.502 272.332 707.594 272.332C709.044 272.332 710.542 272.531 712.014 272.955C719.181 274.974 723.851 281.479 723.851 288.558C723.854 290.03 723.654 291.501 723.254 292.996Z" fill="#E6E8EF"></path><path d="M635.615 348.839H625.812V401.956H635.615V348.839Z" fill="#40207F"></path><path d="M294.732 258.954V808.721C294.732 826.299 307.971 840.547 324.3 840.547H601.779C618.11 840.547 631.349 826.301 631.349 808.721V258.954C631.349 241.379 618.11 227.131 601.779 227.131H324.3C307.971 227.131 294.732 241.379 294.732 258.954Z" fill="#072039"></path><path d="M610.014 820.186H316.071C310.412 820.186 305.826 815.606 305.826 809.959V254.423C305.826 248.774 310.414 244.197 316.071 244.197H610.014C615.674 244.197 620.259 248.776 620.259 254.423V809.959C620.259 815.606 615.671 820.186 610.014 820.186Z" fill="#1A4876"></path><path d="M610.014 244.194H316.071C310.412 244.194 305.826 248.774 305.826 254.42V271.539H620.259V254.42C620.259 248.774 615.671 244.194 610.014 244.194Z" fill="#1A5EA5"></path><path d="M463.042 267.091C467.837 267.091 471.724 263.211 471.724 258.425C471.724 253.639 467.837 249.759 463.042 249.759C458.247 249.759 454.359 253.639 454.359 258.425C454.359 263.211 458.247 267.091 463.042 267.091Z" fill="#280C54"></path><path opacity="0.78" d="M582.036 505.838H344.048C342.174 505.838 340.654 504.321 340.654 502.451V348.074C340.654 346.204 342.174 344.687 344.048 344.687H582.036C583.91 344.687 585.429 346.204 585.429 348.074V502.451C585.429 504.321 583.91 505.838 582.036 505.838Z" fill="#1E2163" fill-opacity="0.64"></path><path d="M581.082 800.976H345.003C342.602 800.976 340.656 799.034 340.656 796.637V757.155C340.656 754.758 342.602 752.816 345.003 752.816H581.082C583.483 752.816 585.429 754.758 585.429 757.155V796.637C585.429 799.034 583.483 800.976 581.082 800.976Z" fill="#3D82C7"></path><path d="M581.082 332.336H345.003C342.602 332.336 340.656 330.394 340.656 327.997V288.515C340.656 286.118 342.602 284.176 345.003 284.176H581.082C583.483 284.176 585.429 286.118 585.429 288.515V327.997C585.429 330.394 583.483 332.336 581.082 332.336Z" fill="#71869D" fill-opacity="0.4"></path><g opacity="0.3"><path d="M357.404 298.828H568.679" stroke="#BBC1F9" stroke-width="1.728" stroke-miterlimit="10"></path><path d="M357.404 308.256H568.679" stroke="#BBC1F9" stroke-width="1.728" stroke-miterlimit="10"></path><path d="M357.404 317.682H568.679" stroke="#BBC1F9" stroke-width="1.728" stroke-miterlimit="10"></path></g><path d="M392.96 589.34C374.837 589.34 360.093 574.624 360.093 556.534C360.093 538.445 374.837 523.728 392.96 523.728C411.083 523.728 425.828 538.445 425.828 556.534C425.828 574.624 411.083 589.34 392.96 589.34Z" fill="#3D82C7"></path><path d="M392.959 580.982C406.486 580.982 417.453 570.036 417.453 556.534C417.453 543.032 406.486 532.086 392.959 532.086C379.432 532.086 368.466 543.032 368.466 556.534C368.466 570.036 379.432 580.982 392.959 580.982Z" fill="#BBC1F9"></path><path d="M392.961 532.086C406.489 532.086 417.454 543.031 417.454 556.534H392.961V532.086Z" fill="#8338EA"></path><path d="M392.96 702.089C374.837 702.089 360.093 687.372 360.093 669.283C360.093 651.193 374.837 636.476 392.96 636.476C411.083 636.476 425.828 651.193 425.828 669.283C425.828 687.372 411.083 702.089 392.96 702.089Z" fill="#9398F9"></path><path d="M392.959 693.73C406.486 693.73 417.453 682.785 417.453 669.283C417.453 655.78 406.486 644.835 392.959 644.835C379.432 644.835 368.466 655.78 368.466 669.283C368.466 682.785 379.432 693.73 392.959 693.73Z" fill="#FC7808"></path><path d="M392.959 644.835C379.431 644.835 368.466 655.78 368.466 669.283H392.959V644.835Z" fill="#BBC1F9"></path><path d="M533.123 589.34C515 589.34 500.256 574.624 500.256 556.534C500.256 538.445 515 523.728 533.123 523.728C551.246 523.728 565.991 538.445 565.991 556.534C565.991 574.624 551.246 589.34 533.123 589.34Z" fill="#3D82C7"></path><path d="M557.3 560.47C559.474 547.143 550.412 534.581 537.061 532.411C523.709 530.242 511.124 539.286 508.95 552.613C506.776 565.939 515.837 578.502 529.189 580.671C542.54 582.841 555.126 573.797 557.3 560.47Z" fill="#FF006C"></path><path d="M533.123 556.534V532.086C526.361 532.086 520.236 534.822 515.805 539.248L533.123 556.534Z" fill="#BBC1F9"></path><path d="M533.123 702.091C515 702.091 500.256 687.374 500.256 669.285C500.256 651.196 515 636.479 533.123 636.479C551.246 636.479 565.991 651.196 565.991 669.285C565.991 687.372 551.246 702.091 533.123 702.091Z" fill="#9398F9"></path><path d="M533.122 693.73C546.65 693.73 557.616 682.785 557.616 669.283C557.616 655.78 546.65 644.835 533.122 644.835C519.595 644.835 508.629 655.78 508.629 669.283C508.629 682.785 519.595 693.73 533.122 693.73Z" fill="#3887FE"></path><path d="M508.629 669.283C508.629 682.785 519.594 693.73 533.122 693.73V644.835C519.594 644.835 508.629 655.78 508.629 669.283Z" fill="#BBC1F9"></path><g opacity="0.3"><path d="M480.818 602.898H585.43" stroke="#9398F9" stroke-width="1.728" stroke-miterlimit="10"></path><path d="M480.818 612.327H585.43" stroke="#9398F9" stroke-width="1.728" stroke-miterlimit="10"></path><path d="M480.818 621.755H585.43" stroke="#9398F9" stroke-width="1.728" stroke-miterlimit="10"></path></g><g opacity="0.3"><path d="M340.654 602.898H445.265" stroke="#9398F9" stroke-width="1.728" stroke-miterlimit="10"></path><path d="M340.654 612.327H445.265" stroke="#9398F9" stroke-width="1.728" stroke-miterlimit="10"></path><path d="M340.654 621.755H445.265" stroke="#9398F9" stroke-width="1.728" stroke-miterlimit="10"></path></g><g opacity="0.3"><path d="M480.818 713.565H585.43" stroke="#9398F9" stroke-width="1.728" stroke-miterlimit="10"></path><path d="M480.818 722.993H585.43" stroke="#9398F9" stroke-width="1.728" stroke-miterlimit="10"></path><path d="M480.818 732.421H585.43" stroke="#9398F9" stroke-width="1.728" stroke-miterlimit="10"></path></g><g opacity="0.3"><path d="M340.654 713.565H445.265" stroke="#9398F9" stroke-width="1.728" stroke-miterlimit="10"></path><path d="M340.654 722.993H445.265" stroke="#9398F9" stroke-width="1.728" stroke-miterlimit="10"></path><path d="M340.654 732.421H445.265" stroke="#9398F9" stroke-width="1.728" stroke-miterlimit="10"></path></g><g opacity="0.15"><path opacity="0.15" d="M668.144 425.192H583.354C578.657 425.192 574.85 428.992 574.85 433.68V486.114C574.85 491.1 578.898 495.143 583.896 495.143H667.612C671.858 495.143 675.302 491.708 675.302 487.47V432.334C675.299 428.391 672.096 425.192 668.144 425.192Z" fill="#0C0C0C"></path><path opacity="0.15" d="M608.945 477.251V444.25C608.945 442.399 610.913 441.207 612.558 442.065L644.236 458.568C646.006 459.491 646.006 462.017 644.236 462.938L612.558 479.436C610.913 480.294 608.945 479.102 608.945 477.251Z" fill="#0C0C0C"></path></g><path d="M663.327 420.384H578.537C573.841 420.384 570.033 424.185 570.033 428.872V481.306C570.033 486.292 574.082 490.335 579.079 490.335H662.795C667.041 490.335 670.485 486.9 670.485 482.662V427.526C670.483 423.584 667.279 420.384 663.327 420.384Z" fill="#FF006C"></path><path d="M663.327 420.384H578.537C573.841 420.384 570.033 424.185 570.033 428.872V481.306C570.033 486.292 574.082 490.335 579.079 490.335H662.795C667.041 490.335 670.485 486.9 670.485 482.662V427.526C670.483 423.584 667.279 420.384 663.327 420.384Z" fill="#FE613C"></path><path d="M663.327 420.384H578.537C573.841 420.384 570.033 424.185 570.033 428.872V481.306C570.033 486.292 574.082 490.335 579.079 490.335H662.795C667.041 490.335 670.485 486.9 670.485 482.662V427.526C670.483 423.584 667.279 420.384 663.327 420.384Z" fill="url(#paint0_linear)" fill-opacity="0.3"></path><path d="M604.129 472.443V439.442C604.129 437.591 606.097 436.399 607.742 437.257L639.419 453.76C641.189 454.683 641.189 457.21 639.419 458.13L607.742 474.628C606.097 475.486 604.129 474.294 604.129 472.443Z" fill="#F0F5F7"></path><g opacity="0.15"><path opacity="0.15" d="M611.419 155.809H539.424C535.436 155.809 532.204 159.035 532.204 163.016V207.537C532.204 211.77 535.643 215.203 539.884 215.203H610.966C614.571 215.203 617.495 212.285 617.495 208.686V161.872C617.495 158.523 614.774 155.809 611.419 155.809Z" fill="#0C0C0C"></path></g><path d="M606.602 151.002H534.608C530.62 151.002 527.388 154.228 527.388 158.209V202.729C527.388 206.962 530.827 210.395 535.068 210.395H606.15C609.755 210.395 612.679 207.477 612.679 203.878V157.064C612.679 153.716 609.957 151.002 606.602 151.002Z" fill="#3887FE"></path><path d="M570.04 191.474C567.962 191.476 566.278 193.159 566.278 195.233C566.281 197.308 567.967 198.988 570.045 198.988C572.123 198.986 573.807 197.303 573.807 195.229C573.807 193.152 572.121 191.471 570.04 191.474ZM561.24 186.065L564.556 189.517C565.987 188.152 567.902 187.313 570.038 187.308C572.174 187.308 574.091 188.142 575.524 189.507L578.833 186.051C576.545 183.868 573.451 182.522 570.033 182.524C566.618 182.526 563.526 183.877 561.24 186.065ZM570.016 162.408C561.194 162.415 553.194 165.896 547.293 171.543L550.609 174.997C555.655 170.17 562.475 167.202 570.019 167.194C577.562 167.189 584.387 170.146 589.44 174.966L592.751 171.507C586.844 165.867 578.838 162.401 570.016 162.408ZM554.359 178.899L557.676 182.351C560.891 179.274 565.223 177.38 570.031 177.375C574.838 177.372 579.173 179.26 582.393 182.332L585.702 178.875C581.625 174.985 576.109 172.586 570.026 172.591C563.94 172.593 558.429 175.002 554.359 178.899Z" fill="#F0F5F7"></path><path opacity="0.7" d="M294.732 509.463H503.225C506.209 509.463 508.63 507.047 508.63 504.069V347.603C508.63 344.625 506.209 342.209 503.225 342.209H294.732V509.463Z" fill="#BBC1F9"></path><path d="M445.265 767.468H574.629" stroke="#BBC1F9" stroke-width="1.728" stroke-miterlimit="10"></path><path d="M445.265 776.896H574.629" stroke="#BBC1F9" stroke-width="1.728" stroke-miterlimit="10"></path><path d="M445.265 786.324H574.629" stroke="#BBC1F9" stroke-width="1.728" stroke-miterlimit="10"></path><path d="M434.521 765.812H353.23V788.036H434.521V765.812Z" fill="#BBC1F9"></path><path d="M604.879 255.805H597.526V261.348H604.879V255.805Z" fill="#9398F9"></path><path d="M592.169 255.805H584.816V261.348H592.169V255.805Z" fill="#9398F9"></path><path d="M579.461 255.805H572.108V261.348H579.461V255.805Z" fill="#9398F9"></path><path d="M566.754 255.805H559.401V261.348H566.754V255.805Z" fill="#9398F9"></path><path d="M566.754 255.805H559.401V261.348H566.754V255.805Z" fill="#9398F9"></path><path d="M320.399 261.351H322.196C323.73 261.351 324.973 260.11 324.973 258.579C324.973 257.048 323.73 255.807 322.196 255.807H320.399C318.865 255.807 317.622 257.048 317.622 258.579C317.622 260.11 318.865 261.351 320.399 261.351Z" fill="#9398F9"></path><path d="M332.164 261.351H333.96C335.494 261.351 336.737 260.11 336.737 258.579C336.737 257.048 335.494 255.807 333.96 255.807H332.164C330.629 255.807 329.387 257.048 329.387 258.579C329.384 260.11 330.629 261.351 332.164 261.351Z" fill="#9398F9"></path><path d="M343.926 261.351H345.723C347.257 261.351 348.5 260.11 348.5 258.579C348.5 257.048 347.257 255.807 345.723 255.807H343.926C342.392 255.807 341.149 257.048 341.149 258.579C341.149 260.11 342.392 261.351 343.926 261.351Z" fill="#9398F9"></path><path d="M355.69 261.351H357.487C359.021 261.351 360.263 260.11 360.263 258.579C360.263 257.048 359.021 255.807 357.487 255.807H355.69C354.156 255.807 352.913 257.048 352.913 258.579C352.913 260.11 354.156 261.351 355.69 261.351Z" fill="#9398F9"></path><path d="M490.319 493.484H252.331C250.457 493.484 248.938 491.968 248.938 490.097V335.721C248.938 333.85 250.457 332.333 252.331 332.333H490.319C492.193 332.333 493.713 333.85 493.713 335.721V490.095C493.713 491.97 492.195 493.484 490.319 493.484Z" fill="#E6ECF3"></path><path d="M266.018 342.206C266.018 344.452 264.195 346.271 261.946 346.271C259.696 346.271 257.873 344.452 257.873 342.206C257.873 339.961 259.696 338.141 261.946 338.141C264.193 338.141 266.018 339.961 266.018 342.206Z" fill="#FF006C"></path><path d="M283.683 342.206C283.683 344.452 281.86 346.271 279.611 346.271C277.361 346.271 275.538 344.452 275.538 342.206C275.538 339.961 277.361 338.141 279.611 338.141C281.86 338.141 283.683 339.961 283.683 342.206Z" fill="#FC7808"></path><path d="M301.349 342.206C301.349 344.452 299.526 346.271 297.277 346.271C295.027 346.271 293.204 344.452 293.204 342.206C293.204 339.961 295.027 338.141 297.277 338.141C299.526 338.141 301.349 339.961 301.349 342.206Z" fill="#3887FE"></path><path d="M479.438 360.834H347.67V479.59H479.438V360.834Z" fill="#9398F9"></path><path d="M314.461 360.834H267.911V363.868H314.461V360.834Z" fill="#9398F9"></path><path d="M337.593 375.955H267.911V378.989H337.593V375.955Z" fill="#9398F9"></path><path d="M337.593 385.816H267.911V388.849H337.593V385.816Z" fill="#9398F9"></path><path d="M337.593 395.677H267.911V398.71H337.593V395.677Z" fill="#9398F9"></path><path d="M337.593 405.54H267.911V408.574H337.593V405.54Z" fill="#9398F9"></path><path d="M337.593 415.401H267.911V418.434H337.593V415.401Z" fill="#9398F9"></path><path d="M337.593 425.261H267.911V428.293H337.593V425.261Z" fill="#9398F9"></path><path d="M337.593 435.125H267.911V438.159H337.593V435.125Z" fill="#9398F9"></path><path d="M313.738 444.986H267.911V448.019H313.738V444.986Z" fill="#9398F9"></path><path d="M375.534 375.397H359.169V465.027H375.534V375.397Z" fill="#BBC1F9"></path><path d="M406.335 375.397H389.97V465.027H406.335V375.397Z" fill="#BBC1F9"></path><path d="M437.136 375.397H420.771V465.027H437.136V375.397Z" fill="#BBC1F9"></path><path d="M467.935 375.397H451.57V465.027H467.935V375.397Z" fill="#BBC1F9"></path><path d="M375.534 440.86H359.169V465.027H375.534V440.86Z" fill="#3887FE"></path><path d="M406.335 428.295H389.97V465.027H406.335V428.295Z" fill="#FC7808"></path><path d="M437.136 398.71H420.771V465.027H437.136V398.71Z" fill="#8338EA"></path><path d="M467.935 412.271H451.57V465.027H467.935V412.271Z" fill="#FF006C"></path><path d="M20.8608 761.105C23.8592 752.268 34.7958 764.331 37.4811 767.377C33.6783 760.703 27.7488 755.249 23.2331 749.472C20.0227 745.364 22.5418 739.289 26.0942 736.023C30.439 732.027 35.5255 736.996 37.9315 740.542C36.5973 735.282 29.4949 729.472 31.0772 724.09C32.5367 719.133 38.9406 715.171 44.3114 716.19C49.7278 717.217 56.2305 721.729 56.4184 727.366C56.5701 731.854 49.369 734.33 48.514 739.571C52.1194 734.941 58.8581 732.705 63.3497 737.667C68.9493 743.857 57.8562 753.141 58.3788 760.422C59.9563 755.461 65.3102 744.662 72.0344 748.251C80.3338 752.684 70.1077 766.199 66.7239 770.569C61.1653 777.747 66.8805 799.003 66.8805 799.003C66.8756 799.007 51.1175 788.377 43.0807 784.392C35.0752 780.425 16.7858 773.112 20.8608 761.105Z" fill="#B6A6F9"></path><path d="M40.3878 773.819C43.0274 775.343 45.7055 776.831 48.3524 778.326C50.4886 779.533 52.6417 780.781 54.7948 782.048C51.4255 775.639 48.7738 768.797 46.8278 761.831C43.9378 758.374 40.9634 755.102 37.8325 751.891C36.2478 750.263 34.6245 748.66 33.0253 747.064C31.4286 745.47 28.223 742.323 28.223 742.323C28.223 742.323 31.4695 745.347 33.0879 746.883C34.7088 748.424 36.3393 749.987 37.9625 751.556C40.9152 754.41 43.721 757.388 46.4545 760.465C44.5206 753.335 43.5765 746.066 43.0659 738.712C42.6613 737.539 42.1435 736.431 41.604 735.352C41.0573 734.253 40.4673 733.195 39.8748 732.147C38.6875 730.051 37.4544 728.001 36.2092 725.984C37.4977 727.933 38.779 729.921 40.0121 731.967C40.631 732.991 41.2452 734.027 41.8208 735.114C42.2374 735.902 42.6469 736.708 43.0129 737.559C42.9142 732.018 43.1285 726.618 43.6632 721.101C43.2441 726.633 43.1406 732.039 43.3598 737.583C43.6777 736.561 44.0461 735.568 44.4724 734.638C45.0336 733.417 45.6598 732.246 46.3534 731.174C47.7382 729.027 51.0763 725.563 51.0763 725.563C51.0763 725.563 47.8201 729.154 46.4907 731.342C45.8284 732.436 45.2335 733.623 44.706 734.849C44.1858 736.061 43.774 737.364 43.432 738.696C44.1015 746.056 45.2046 753.326 47.3095 760.429C47.719 758.509 48.2633 756.665 48.9496 754.956C49.7974 752.843 50.8137 750.845 51.9601 749.018C53.1065 747.191 54.3661 745.494 55.7148 743.941C57.0635 742.388 60.0259 739.691 60.0259 739.691C60.0259 739.691 57.1237 742.479 55.8112 744.073C54.4986 745.669 53.2824 747.405 52.1841 749.263C51.0835 751.121 50.1225 753.145 49.3302 755.27C48.586 757.266 48.0369 759.422 47.6732 761.66C49.7565 768.531 52.5357 775.261 56.0207 781.545C56.2977 778.858 56.7914 776.271 57.4898 773.848C58.3304 770.93 59.4406 768.143 60.7291 765.562C62.0152 762.985 63.4891 760.559 65.1004 758.311C66.7116 756.064 70.3434 752.066 70.3434 752.066C70.3434 752.066 66.8055 756.16 65.2497 758.453C63.6939 760.747 62.2825 763.215 61.0663 765.831C59.8476 768.449 58.8144 771.266 58.0534 774.201C57.3477 776.918 56.8974 779.819 56.7312 782.822C63.6144 794.409 71.9258 804.178 82.2482 812.854C81.6894 813.532 81.41 813.871 80.8537 814.546C70.5217 805.495 62.2681 795.375 55.5125 783.423C53.0993 781.927 50.6716 780.459 48.2536 779.031C45.6236 777.475 42.9576 775.92 40.3276 774.324C35.0725 771.131 24.7549 764.456 24.7549 764.456C24.7645 764.451 35.1279 770.781 40.3878 773.819Z" fill="#8338EA"></path><path d="M101.987 750.054C109.899 747.799 106.624 761.739 105.757 765.208C108.695 759.119 109.682 752.102 111.614 745.948C112.987 741.57 118.653 740.352 122.803 741.282C127.875 742.421 126.818 748.587 125.45 752.1C128.595 748.503 129.258 740.46 133.954 738.912C138.28 737.486 144.361 740.133 146.309 744.522C148.274 748.951 148.258 755.91 144.262 758.869C141.08 761.225 135.681 757.261 131.452 759.263C136.615 759.552 141.613 763.304 140.259 769.033C138.571 776.18 126.283 772.807 121.262 776.829C125.652 775.485 136.165 773.949 136.926 780.605C137.865 788.822 122.943 788.197 118.075 787.94C110.084 787.514 97.5246 802.286 97.5246 802.286C97.5198 802.284 97.3416 785.574 96.2096 777.771C95.0873 769.997 91.2387 753.119 101.987 750.054Z" fill="#B6A6F9"></path><path d="M102.542 770.53C102.756 773.201 103.018 775.881 103.259 778.543C103.452 780.692 103.625 782.872 103.784 785.062C106.747 779.418 110.383 774.078 114.463 769.184C115.523 765.367 116.409 761.578 117.173 757.708C117.56 755.746 117.912 753.773 118.268 751.818C118.625 749.866 119.304 745.974 119.304 745.974C119.304 745.974 118.736 749.833 118.43 751.773C118.124 753.715 117.806 755.677 117.478 757.636C116.886 761.198 116.13 764.715 115.268 768.232C119.47 763.266 124.275 758.944 129.352 754.893C130 754.013 130.544 753.083 131.059 752.155C131.584 751.21 132.056 750.253 132.519 749.301C133.446 747.395 134.316 745.477 135.156 743.566C134.388 745.474 133.586 747.393 132.719 749.309C132.285 750.268 131.842 751.232 131.341 752.191C130.978 752.888 130.599 753.585 130.164 754.277C134.135 751.431 138.157 748.886 142.427 746.51C138.203 748.977 134.231 751.609 130.318 754.542C131.218 754.261 132.122 754.03 133.01 753.874C134.178 753.669 135.342 753.535 136.464 753.499C138.716 753.424 142.899 754.104 142.899 754.104C142.899 754.104 138.665 753.547 136.411 753.684C135.286 753.751 134.128 753.917 132.974 754.15C131.835 754.381 130.684 754.734 129.547 755.155C124.54 759.323 119.819 763.761 115.72 768.838C117.32 768.172 118.928 767.643 120.513 767.283C122.471 766.838 124.429 766.571 126.327 766.487C128.225 766.4 130.086 766.461 131.89 766.66C133.692 766.86 137.131 767.648 137.131 767.648C137.131 767.648 133.656 766.946 131.842 766.795C130.029 766.643 128.16 766.634 126.262 766.771C124.362 766.905 122.413 767.223 120.475 767.715C118.654 768.177 116.816 768.86 115.01 769.715C111.07 774.66 107.578 780.038 104.762 785.704C106.85 784.557 108.974 783.62 111.082 782.913C113.62 782.06 116.197 781.466 118.714 781.105C121.228 780.745 123.723 780.596 126.161 780.636C128.598 780.675 133.316 781.3 133.316 781.3C133.316 781.3 128.574 780.79 126.132 780.817C123.69 780.841 121.192 781.057 118.685 781.487C116.176 781.918 113.615 782.581 111.103 783.499C108.779 784.35 106.45 785.476 104.189 786.86C99.2276 797.637 96.3014 808.531 95.1767 820.337C94.406 820.272 94.0207 820.241 93.25 820.176C94.6445 808.178 97.8549 797.147 103.144 786.281C103.021 783.788 102.869 781.297 102.698 778.836C102.51 776.156 102.303 773.451 102.147 770.751C101.834 765.355 101.511 754.556 101.511 754.556C101.516 754.549 102.113 765.208 102.542 770.53Z" fill="#8338EA"></path><path d="M124.685 745.958C116.605 734.38 105.803 756.494 103.185 762.049C105.897 750.761 112.21 740.347 116.333 730.058C119.264 722.741 113.045 714.978 106.509 711.724C98.5155 707.745 93.2195 717.099 91.2205 723.26C90.9435 715.063 98.8094 703.637 94.2406 696.485C90.0332 689.898 79.0581 686.836 71.6884 690.569C64.2561 694.334 56.7106 703.62 58.8131 711.887C60.4869 718.471 71.987 719.041 75.4383 726.294C68.2492 721.084 57.5174 720.664 53.0883 729.758C47.5635 741.102 67.5917 749.927 69.9014 760.723C65.5181 754.177 53.1895 740.741 44.9383 748.777C34.7508 758.701 55.2992 774.038 62.0596 778.966C73.1599 787.057 73.8174 820.332 73.8174 820.332C73.827 820.335 92.2344 798.279 102.229 789.115C112.181 779.987 135.665 761.686 124.685 745.958Z" fill="#BBC1F9"></path><path d="M101.68 772.622C98.4888 775.944 95.2254 779.228 92.0102 782.514C89.4163 785.165 86.8128 787.882 84.2214 790.625C86.413 779.901 87.3812 768.85 87.2728 757.912C90.0136 751.679 92.9567 745.676 96.1502 739.698C97.7686 736.669 99.4449 733.657 101.097 730.666C102.747 727.681 106.073 721.765 106.073 721.765C106.073 721.765 102.634 727.52 100.931 730.431C99.2257 733.349 97.5182 736.304 95.8202 739.265C92.7351 744.65 89.9173 750.155 87.2391 755.77C87.044 744.602 85.3509 733.645 82.9931 722.75C83.0846 720.878 83.3736 719.051 83.6988 717.255C84.0287 715.43 84.4382 713.644 84.8596 711.873C85.7002 708.329 86.6298 704.834 87.5859 701.38C86.5359 704.755 85.5147 708.178 84.5851 711.668C84.1178 713.416 83.6602 715.178 83.2845 716.998C83.01 718.318 82.7547 719.659 82.5837 721.048C80.392 712.957 77.8054 705.207 74.7034 697.418C77.6465 705.279 80.0717 713.087 82.0924 721.231C81.1989 719.88 80.2475 718.594 79.2336 717.423C77.9018 715.885 76.5001 714.447 75.043 713.18C72.124 710.642 65.8188 707.014 65.8188 707.014C65.8188 707.014 72.0638 710.861 74.9153 713.483C76.3387 714.791 77.7019 716.267 78.9855 717.83C80.2524 719.37 81.3988 721.092 82.456 722.88C84.5875 733.854 86.047 744.876 85.9843 756.078C84.5778 753.46 83.0124 751.011 81.2952 748.816C79.171 746.104 76.8541 743.628 74.4192 741.455C71.9843 739.284 69.4411 737.347 66.8255 735.657C64.21 733.969 58.7718 731.294 58.7718 731.294C58.7718 731.294 64.1618 734.123 66.7388 735.888C69.3182 737.652 71.8157 739.664 74.1952 741.902C76.5771 744.14 78.8266 746.674 80.8737 749.429C82.7932 752.016 84.5008 754.915 85.9747 758.013C85.8447 768.867 84.6453 779.812 82.2297 790.404C80.6955 786.615 78.8868 783.067 76.8493 779.841C74.3975 775.956 71.611 772.374 68.6535 769.165C65.6984 765.961 62.5362 763.059 59.2487 760.47C55.9612 757.881 49.001 753.602 49.001 753.602C49.001 753.602 55.8673 758.064 59.0922 760.742C62.3194 763.422 65.407 766.415 68.2802 769.704C71.1558 772.994 73.8412 776.656 76.1846 780.598C78.3545 784.25 80.2307 788.274 81.7383 792.565C76.6229 812.286 68.6704 829.965 57.3316 846.9C58.4274 847.65 58.9766 848.023 60.0724 848.773C71.2642 831.287 78.9904 813.121 83.7614 792.923C86.637 789.74 89.5464 786.584 92.4509 783.495C95.6155 780.129 98.8332 776.754 101.979 773.329C108.267 766.482 120.439 752.453 120.439 752.453C120.424 752.453 108.038 765.999 101.68 772.622Z" fill="#8338EA"></path><path d="M106.957 870.966H50.7742C42.5592 870.966 35.9023 864.319 35.9023 856.119V796.981H121.829V856.119C121.829 864.319 115.17 870.966 106.957 870.966Z" fill="#9398F9"></path><path d="M35.3782 35.436L34.7568 33.1163L146.991 3.23083L442.525 30.7508L442.303 33.1451L147.195 5.666L35.3782 35.436Z" fill="#280C54"></path><path d="M206.856 230.03L172.498 262.115H216.013V268.515L206.856 277.06L172.498 309.143H216.013V315.542L206.856 324.105L172.498 356.19H216.013V362.589L206.856 371.135L172.498 403.22H216.013V409.619L206.856 418.18L172.498 450.265H216.013V456.664L206.856 465.21L172.498 497.295H216.013V503.694L206.856 512.254L172.498 544.339H216.013V550.739L206.856 559.284L172.498 591.369H216.013V597.8L206.856 605.629L181.686 627.171L171.002 636.313H165.126L162.652 633.433L169.964 627.171L202.904 598.987H156.99V595.422L166.149 586.877L203.545 551.957H156.99V548.392L166.149 539.846L203.545 504.913H156.99V501.348L166.149 492.799L203.545 457.883H156.99V454.318L166.149 445.772L203.545 410.838H156.99V407.273L166.149 398.725L203.545 363.806H156.99V360.243L166.149 351.695L203.545 316.761H156.99V313.196L166.149 304.65L203.545 269.731H156.99V266.166L166.149 257.62L203.545 222.686H162.835V215.068H216.013V221.468L206.856 230.03Z" fill="#76B2EC"></path><path d="M156.99 198.57V636.313H216.013V198.57H156.99ZM206.856 627.171H166.149V207.71H206.856V627.171Z" fill="#76B2EC"></path><path d="M422.6 101.749L385.484 255.112L388.45 255.827L425.566 102.464L422.6 101.749Z" fill="#280C54"></path><path d="M334.51 102.243L331.547 102.97L369.19 255.829L372.154 255.102L334.51 102.243Z" fill="#280C54"></path><path d="M252.511 190.955H120.485V203.143H252.511V190.955Z" fill="#491E87"></path><path d="M252.511 203.143H120.485V215.33H252.511V203.143Z" fill="#280C54"></path><path d="M237.546 174.392L212.077 84.4567H130.408V190.964H242.608L237.546 174.392Z" fill="#FE9C0A"></path><path d="M13.0107 87.3558H451.57V28.4431H13.0107V87.3558ZM22.1699 78.2137V37.5828H442.414V78.2137H22.1699Z" fill="#76B2EC"></path><path d="M44.5295 78.2137L76.6743 43.9219V87.3558H83.0855L91.6473 78.2137L123.792 43.9219V87.3558H130.203L138.782 78.2137L170.925 43.9219V87.3558H177.336L185.898 78.2137L218.042 43.9219V87.3558H224.454L233.032 78.2137L265.175 43.9219V87.3558H271.586L280.15 78.2137L312.293 43.9219V87.3558H318.704L327.283 78.2137L359.427 43.9219V87.3558H365.839L374.4 78.2137L406.545 43.9219V87.3558H412.985L420.832 78.2137L442.414 53.0928L451.57 42.4267V36.5635L448.687 34.0947L442.414 41.393L414.177 74.2689V28.4431H410.603L402.042 37.5828L367.057 74.9083V28.4431H363.488L354.924 37.5828L319.925 74.9083V28.4431H316.353L307.791 37.5828L272.807 74.9083V28.4431H269.235L260.673 37.5828L225.675 74.9083V28.4431H222.103L213.541 37.5828L178.557 74.9083V28.4431H174.985L166.423 37.5828L131.424 74.9083V28.4431H127.853L119.291 37.5828L84.3065 74.9083V28.4431H80.7349L72.1706 37.5828L37.1742 74.9083V34.2774H29.542V87.3558H35.9531L44.5295 78.2137Z" fill="#76B2EC"></path><path d="M98.4808 87.2307H19.7021V102.563H98.4808V87.2307Z" fill="#1A5EA5"></path><path d="M98.4808 102.563H19.7021V117.895H98.4808V102.563Z" fill="#081623"></path><path d="M98.4808 117.895H19.7021V133.227H98.4808V117.895Z" fill="#1A5EA5"></path><path d="M98.4808 133.227H19.7021V148.559H98.4808V133.227Z" fill="#081623"></path><path d="M430.71 84.4567H327.429V104.986H430.71V84.4567Z" fill="#081623"></path><path d="M430.71 104.986H327.429V125.515H430.71V104.986Z" fill="#081623"></path><path d="M430.71 102.229H327.429V118.385H430.71V102.229Z" fill="#FE9C0A"></path><path d="M379.599 325.071C368.097 325.071 358.74 315.732 358.74 304.251C358.74 302.568 360.108 301.205 361.794 301.205C363.48 301.205 364.848 302.568 364.848 304.251C364.848 312.371 371.466 318.977 379.602 318.977C387.737 318.977 394.356 312.371 394.356 304.251C394.356 296.131 387.737 289.525 379.602 289.525C377.916 289.525 376.548 288.162 376.548 286.476C376.548 284.794 377.916 283.428 379.602 283.428C391.102 283.428 400.461 292.767 400.461 304.249C400.461 315.73 391.1 325.071 379.599 325.071Z" fill="#6031AA"></path><path d="M166.149 575.487H156.99V846.843H166.149V589.314V584.626V575.487Z" fill="#76B2EC"></path><path d="M206.856 575.487V584.626V589.314V846.843H216.013V575.487H206.856Z" fill="#76B2EC"></path><path d="M214.71 834.799L216.013 833.58V827.181H172.498L206.856 795.096L216.013 786.536V780.137H172.498L206.856 748.052L216.013 739.506V733.106H172.498L206.856 701.021L216.013 692.459V686.062H172.498L206.856 653.977L216.013 645.431V639.032H172.498L206.856 606.947L216.013 598.384V591.985H162.835V599.603H203.545L166.149 634.536L156.99 643.085V646.65H203.545L166.149 681.567L156.99 690.113V693.678H203.545L166.149 728.611L156.99 737.159V740.724H203.545L166.149 775.641L156.99 784.19V787.755H203.545L166.149 822.688L156.99 831.234V834.799H203.545H214.71Z" fill="#76B2EC"></path><path d="M399.23 232.901H357.934V286.222H399.23V232.901Z" fill="#FE9C0A"></path><path d="M378.581 338.853C377.102 338.853 375.9 337.656 375.9 336.177V317.689C375.9 316.213 377.1 315.013 378.581 315.013C380.06 315.013 381.259 316.21 381.259 317.689V336.177C381.261 337.656 380.062 338.853 378.581 338.853Z" fill="#280C54"></path><path d="M366.92 286.222H376.045L399.231 263.51V254.57L366.92 286.222Z" fill="#491E87"></path><path d="M396.056 286.222L399.23 283.113V274.173L386.931 286.222H396.056Z" fill="#491E87"></path><path d="M357.934 255.817V264.757L390.452 232.901H381.326L357.934 255.817Z" fill="#491E87"></path><path d="M357.934 236.213V245.153L370.44 232.901H361.313L357.934 236.213Z" fill="#491E87"></path><path d="M357.934 275.421V284.361L399.23 243.906V234.966L357.934 275.421Z" fill="#491E87"></path><path d="M427.173 110.306C427.173 112.563 425.338 114.395 423.076 114.395C420.815 114.395 418.979 112.563 418.979 110.306C418.979 108.049 420.812 106.217 423.076 106.217C425.34 106.219 427.173 108.049 427.173 110.306Z" fill="#280C54"></path><path d="M335.063 114.395C337.326 114.395 339.16 112.564 339.16 110.306C339.16 108.048 337.326 106.217 335.063 106.217C332.801 106.217 330.967 108.048 330.967 110.306C330.967 112.564 332.801 114.395 335.063 114.395Z" fill="#280C54"></path><path d="M234.227 162.668L215.607 96.9209H148.835C145.554 96.9209 142.896 99.5748 142.896 102.849V156.74C142.896 160.014 145.554 162.668 148.835 162.668H234.227Z" fill="#491E87"></path><path d="M169.898 96.9185L142.896 149.994V156.737C142.896 158.172 143.425 159.468 144.276 160.495L176.62 96.9185H169.898Z" fill="#6635B5"></path><path d="M155.46 162.668H177.634L211.084 96.9185H188.908L155.46 162.668Z" fill="#6635B5"></path><path d="M180.98 94.8967H176.148V168.678H180.98V94.8967Z" fill="#FE9C0A"></path><path d="M244.499 803.423H128.498V822.722H244.499V803.423Z" fill="#FE9C0A"></path><path d="M263.833 822.722H109.166V870.966H263.833V822.722Z" fill="#280C54"></path><path d="M175.975 822.722H165.279L116.032 870.966H126.728L175.975 822.722Z" fill="#FE9C0A"></path><path d="M151.479 822.722H140.783L109.166 853.696V864.172L151.479 822.722Z" fill="#FE9C0A"></path><path d="M109.166 829.698V840.177L126.983 822.722H116.288L109.166 829.698Z" fill="#FE9C0A"></path><path d="M200.471 822.722H189.775L140.528 870.966H151.224L200.471 822.722Z" fill="#FE9C0A"></path><path d="M263.833 856.639V846.162L238.514 870.966H249.209L263.833 856.639Z" fill="#FE9C0A"></path><path d="M263.834 832.643V822.722H263.265L214.019 870.966H224.714L263.834 832.643Z" fill="#FE9C0A"></path><path d="M249.466 822.722H238.77L189.521 870.966H200.216L249.466 822.722Z" fill="#FE9C0A"></path><path d="M224.969 822.722H214.274L165.024 870.966H175.72L224.969 822.722Z" fill="#FE9C0A"></path><path d="M388.636 342.206H368.528C366.115 342.206 364.159 340.254 364.159 337.846V330.122H393.007V337.846C393.005 340.254 391.049 342.206 388.636 342.206Z" fill="#280C54"></path><path d="M158.235 11.1205C158.235 17.2625 153.247 22.241 147.093 22.241C140.94 22.241 135.952 17.2625 135.952 11.1205C135.95 4.9785 140.938 0 147.091 0C153.244 0 158.235 4.9785 158.235 11.1205Z" fill="#280C54"></path><path d="M147.091 32.1499V11.1205L193.684 32.3518" stroke="#9398F9" stroke-width="3" stroke-miterlimit="10" stroke-linecap="round" stroke-linejoin="round"></path><path d="M149.05 11.1205C149.05 12.1999 148.173 13.0749 147.092 13.0749C146.01 13.0749 145.134 12.1999 145.134 11.1205C145.134 10.0412 146.01 9.16614 147.092 9.16614C148.173 9.16614 149.05 10.0412 149.05 11.1205Z" fill="#491E87"></path><g opacity="0.15"><path opacity="0.15" d="M305.849 565.374H194.553C188.387 565.374 183.39 570.362 183.39 576.516V645.342C183.39 651.888 188.705 657.193 195.263 657.193H305.151C310.724 657.193 315.245 652.684 315.245 647.119V574.749C315.242 569.573 311.037 565.374 305.849 565.374Z" fill="#0C0C0C"></path><path opacity="0.15" d="M238.413 582.28C231.441 584.889 225.67 589.915 222.108 596.346H233.555C234.832 589.843 236.77 585.237 238.413 582.28ZM264.402 612.437H250.619V623.933H263.434C263.978 620.57 264.351 616.779 264.402 612.437ZM232.226 612.437H218.271C218.423 616.536 219.444 620.392 221.041 623.933H233.194C232.657 620.563 232.284 616.779 232.226 612.437ZM233.17 598.641H220.957C219.365 602.17 218.442 606.053 218.293 610.139H232.221C232.271 605.817 232.63 602.014 233.17 598.641ZM266.728 610.137H280.362C280.199 606.053 279.242 602.175 277.653 598.639H265.775C266.309 602.007 266.661 605.817 266.728 610.137ZM276.497 596.348C272.988 590.028 267.396 585.021 260.573 582.381C262.203 585.343 264.123 589.91 265.38 596.348H276.497ZM257.731 581.432C255.452 580.79 253.075 580.405 250.619 580.295V596.348H263.08C261.678 589.163 259.445 584.328 257.731 581.432ZM263.46 598.641H250.619V610.139H264.416C264.363 605.817 263.997 602.014 263.46 598.641ZM235.86 596.348H248.314V580.302C245.872 580.381 243.507 580.766 241.243 581.381C239.514 584.268 237.267 589.124 235.86 596.348ZM260.512 640.222C267.355 637.58 272.973 632.575 276.478 626.236H265.365C264.096 632.738 262.157 637.294 260.512 640.222ZM250.619 626.236V642.236C253.042 642.126 255.399 641.792 257.651 641.171C259.38 638.328 261.62 633.464 263.034 626.236H250.619ZM265.739 623.935H277.583C279.168 620.392 280.177 616.536 280.333 612.44H266.714C266.656 616.779 266.276 620.563 265.739 623.935ZM235.499 623.935H248.314V612.44H234.531C234.588 616.779 234.962 620.57 235.499 623.935ZM241.32 641.222C243.567 641.816 245.898 642.203 248.314 642.275V626.236H235.906C237.327 633.51 239.586 638.385 241.32 641.222ZM222.142 626.236C225.711 632.674 231.479 637.719 238.478 640.32C236.828 637.4 234.858 632.803 233.574 626.236H222.142ZM234.519 610.137H248.316V598.639H235.482C234.935 602.014 234.576 605.817 234.519 610.137Z" fill="#0C0C0C"></path></g><path d="M301.033 560.566H189.736C183.571 560.566 178.573 565.554 178.573 571.708V640.534C178.573 647.08 183.889 652.385 190.447 652.385H300.335C305.908 652.385 310.428 647.876 310.428 642.311V569.941C310.426 564.765 306.221 560.566 301.033 560.566Z" fill="#8338EA"></path><path d="M233.597 577.472C226.624 580.081 220.854 585.107 217.292 591.538H228.739C230.015 585.035 231.954 580.429 233.597 577.472ZM259.586 607.629H245.802V619.125H258.617C259.162 615.762 259.535 611.968 259.586 607.629ZM227.409 607.629H213.455C213.607 611.728 214.628 615.584 216.225 619.125H228.378C227.84 615.755 227.467 611.968 227.409 607.629ZM228.353 593.833H216.14C214.549 597.362 213.626 601.245 213.477 605.331H227.405C227.455 601.009 227.814 597.206 228.353 593.833ZM261.912 605.329H275.546C275.382 601.245 274.426 597.367 272.837 593.831H260.958C261.493 597.199 261.845 601.009 261.912 605.329ZM271.681 591.54C268.171 585.22 262.579 580.213 255.756 577.573C257.387 580.535 259.306 585.102 260.563 591.54H271.681ZM252.914 576.624C250.636 575.982 248.259 575.597 245.802 575.487V591.54H258.263C256.862 584.355 254.629 579.52 252.914 576.624ZM258.644 593.833H245.802V605.331H259.6C259.547 601.009 259.181 597.206 258.644 593.833ZM231.044 591.54H243.497V575.494C241.055 575.573 238.69 575.958 236.426 576.573C234.697 579.46 232.45 584.316 231.044 591.54ZM255.696 635.414C262.538 632.772 268.157 627.767 271.661 621.428H260.549C259.28 627.93 257.341 632.486 255.696 635.414ZM245.802 621.428V637.428C248.225 637.318 250.583 636.984 252.835 636.363C254.564 633.52 256.804 628.656 258.218 621.428H245.802ZM260.922 619.127H272.767C274.351 615.584 275.361 611.728 275.517 607.632H261.898C261.84 611.968 261.459 615.755 260.922 619.127ZM230.682 619.127H243.497V607.632H229.714C229.772 611.968 230.145 615.762 230.682 619.127ZM236.503 636.414C238.75 637.008 241.082 637.395 243.497 637.467V621.428H231.089C232.51 628.702 234.769 633.577 236.503 636.414ZM217.325 621.428C220.895 627.866 226.663 632.911 233.662 635.512C232.012 632.592 230.042 627.995 228.758 621.428H217.325ZM229.702 605.329H243.5V593.831H230.665C230.119 597.206 229.76 601.009 229.702 605.329Z" fill="#F0F5F7"></path><g opacity="0.15"><path opacity="0.15" d="M207.353 297.039H96.0565C89.891 297.039 84.8936 302.027 84.8936 308.181V377.008C84.8936 383.554 90.2089 388.859 96.767 388.859H206.655C212.228 388.859 216.749 384.349 216.749 378.784V306.415C216.746 301.237 212.541 297.039 207.353 297.039Z" fill="#0C0C0C"></path><path opacity="0.15" d="M177.371 315.494H124.268C119.991 315.494 116.522 318.956 116.522 323.225V356.664C116.522 360.933 119.991 364.394 124.268 364.394H157.304L167.335 374.404V364.394H177.371C181.648 364.394 185.116 360.933 185.116 356.664V323.225C185.116 318.956 181.648 315.494 177.371 315.494ZM133.157 343.788C131.031 343.788 129.309 342.067 129.309 339.947C129.309 337.824 131.033 336.103 133.157 336.103C135.284 336.103 137.006 337.824 137.006 339.947C137.006 342.067 135.284 343.788 133.157 343.788ZM150.82 343.788C148.694 343.788 146.969 342.067 146.969 339.947C146.969 337.824 148.694 336.103 150.82 336.103C152.947 336.103 154.669 337.824 154.669 339.947C154.669 342.067 152.945 343.788 150.82 343.788ZM168.481 343.788C166.355 343.788 164.63 342.067 164.63 339.947C164.63 337.824 166.355 336.103 168.481 336.103C170.608 336.103 172.33 337.824 172.33 339.947C172.332 342.067 170.608 343.788 168.481 343.788Z" fill="#0C0C0C"></path></g><path d="M202.537 292.231H91.2401C85.0746 292.231 80.0771 297.22 80.0771 303.374V372.2C80.0771 378.746 85.3925 384.051 91.9505 384.051H201.838C207.412 384.051 211.932 379.542 211.932 373.976V301.607C211.93 296.429 207.725 292.231 202.537 292.231Z" fill="#FC7808"></path><path d="M172.554 310.686H119.451C115.174 310.686 111.706 314.148 111.706 318.417V351.856C111.706 356.125 115.174 359.587 119.451 359.587H152.487L162.518 369.596V359.587H172.554C176.832 359.587 180.3 356.125 180.3 351.856V318.417C180.3 314.148 176.832 310.686 172.554 310.686ZM128.341 338.98C126.214 338.98 124.492 337.259 124.492 335.139C124.492 333.016 126.217 331.295 128.341 331.295C130.467 331.295 132.189 333.016 132.189 335.139C132.189 337.259 130.467 338.98 128.341 338.98ZM146.004 338.98C143.877 338.98 142.153 337.259 142.153 335.139C142.153 333.016 143.877 331.295 146.004 331.295C148.131 331.295 149.853 333.016 149.853 335.139C149.853 337.259 148.128 338.98 146.004 338.98ZM163.665 338.98C161.538 338.98 159.814 337.259 159.814 335.139C159.814 333.016 161.538 331.295 163.665 331.295C165.791 331.295 167.513 333.016 167.513 335.139C167.516 337.259 165.791 338.98 163.665 338.98Z" fill="#F0F5F7"></path><path d="M676.821 585.148C676.821 581.083 679.164 579.042 681.231 577.244C683.133 575.588 684.636 574.28 684.636 571.544C684.636 568.806 683.133 567.498 681.231 565.84C679.164 564.039 676.821 562.001 676.821 557.933C676.821 553.868 679.164 551.83 681.231 550.029C683.133 548.373 684.636 547.068 684.636 544.33C684.636 541.592 683.133 540.281 681.231 538.625C679.164 536.825 676.821 534.784 676.821 530.716C676.821 526.646 679.162 524.606 681.228 522.803C683.131 521.144 684.634 519.834 684.634 517.091C684.634 514.35 683.131 513.04 681.228 511.382C679.162 509.581 676.818 507.538 676.818 503.468C676.818 502.66 677.473 502.006 678.283 502.006C679.092 502.006 679.747 502.663 679.747 503.468C679.747 506.211 681.25 507.521 683.152 509.18C685.219 510.98 687.56 513.021 687.56 517.093C687.56 521.163 685.219 523.206 683.15 525.007C681.247 526.666 679.745 527.976 679.745 530.716C679.745 533.454 681.247 534.764 683.15 536.423C685.216 538.224 687.56 540.262 687.56 544.332C687.56 548.399 685.216 550.436 683.15 552.236C681.247 553.892 679.747 555.2 679.747 557.933C679.747 560.671 681.25 561.979 683.152 563.635C685.219 565.436 687.562 567.474 687.562 571.542C687.562 575.607 685.219 577.648 683.152 579.446C681.25 581.102 679.747 582.41 679.747 585.146C679.747 585.953 679.092 586.607 678.283 586.607C677.473 586.607 676.821 585.956 676.821 585.148Z" fill="white"></path><path d="M122.262 682.733H106.795V685.225H122.262V682.733ZM112.223 698.305L113.989 700.067L124.925 689.149L123.16 687.387L112.223 698.305ZM134.419 682.733V685.225H149.886V682.733H134.419ZM112.223 669.655L123.16 680.571L124.925 678.809L113.989 667.893L112.223 669.655ZM144.457 669.655L142.692 667.893L131.756 678.809L133.521 680.571L144.457 669.655ZM131.756 689.151L142.692 700.07L144.457 698.308L133.521 687.389L131.756 689.151ZM127.093 677.91H129.59V662.475H127.093V677.91ZM127.093 705.486H129.59V690.05H127.093V705.486Z" fill="white"></path><path d="M253.506 257.178H238.039V259.671H253.506V257.178ZM243.468 272.75L245.233 274.512L256.169 263.594L254.404 261.832L243.468 272.75ZM265.663 257.178V259.671H281.13V257.178H265.663ZM243.468 244.098L254.404 255.014L256.169 253.252L245.233 242.336L243.468 244.098ZM275.702 244.098L273.936 242.336L263 253.252L264.765 255.014L275.702 244.098ZM263.002 263.594L273.939 274.512L275.704 272.75L264.767 261.832L263.002 263.594ZM258.337 252.355H260.835V236.92H258.337V252.355ZM258.337 279.928H260.835V264.493H258.337V279.928Z" fill="white"></path><path d="M659.489 643.979C660.804 643.979 662.09 643.448 663.02 642.52C663.95 641.592 664.484 640.308 664.484 638.996C664.484 637.683 663.952 636.399 663.02 635.469C662.09 634.541 660.804 634.01 659.489 634.01C658.174 634.01 656.888 634.541 655.956 635.469C655.026 636.397 654.494 637.681 654.494 638.996C654.494 640.308 655.026 641.592 655.956 642.52C656.888 643.448 658.174 643.979 659.489 643.979Z" fill="#E6E8EF"></path><path d="M710.987 643.979H711.011C713.769 643.979 716.006 641.748 716.006 638.993C716.006 636.238 713.769 634.008 711.011 634.008H710.987C708.23 634.008 705.992 636.238 705.992 638.993C705.992 641.748 708.227 643.979 710.987 643.979Z" fill="#E6E8EF"></path><path d="M685.233 643.979H685.257C688.015 643.979 690.252 641.748 690.252 638.993C690.252 636.238 688.015 634.008 685.257 634.008H685.233C682.476 634.008 680.238 636.238 680.238 638.993C680.238 641.748 682.473 643.979 685.233 643.979Z" fill="#E6E8EF"></path><path d="M659.489 623.503C660.804 623.503 662.09 622.971 663.02 622.041C663.95 621.113 664.484 619.829 664.484 618.517C664.484 617.204 663.952 615.921 663.02 614.99C662.09 614.062 660.804 613.531 659.489 613.531C658.174 613.531 656.888 614.062 655.956 614.99C655.026 615.918 654.494 617.202 654.494 618.517C654.494 619.829 655.026 621.113 655.956 622.041C656.888 622.969 658.174 623.503 659.489 623.503Z" fill="#E6E8EF"></path><path d="M710.987 623.503H711.011C713.769 623.503 716.006 621.269 716.006 618.517C716.006 615.764 713.769 613.531 711.011 613.531H710.987C708.23 613.531 705.992 615.762 705.992 618.517C705.992 621.269 708.227 623.503 710.987 623.503Z" fill="#E6E8EF"></path><path d="M685.233 623.503H685.257C688.015 623.503 690.252 621.269 690.252 618.517C690.252 615.764 688.015 613.531 685.257 613.531H685.233C682.476 613.531 680.238 615.762 680.238 618.517C680.238 621.269 682.473 623.503 685.233 623.503Z" fill="#E6E8EF"></path><path d="M659.489 664.458C660.804 664.458 662.09 663.927 663.02 662.999C663.95 662.071 664.484 660.787 664.484 659.475C664.484 658.162 663.952 656.878 663.02 655.948C662.09 655.02 660.804 654.489 659.489 654.489C658.174 654.489 656.888 655.02 655.956 655.948C655.026 656.876 654.494 658.16 654.494 659.475C654.494 660.787 655.026 662.071 655.956 662.999C656.888 663.927 658.174 664.458 659.489 664.458Z" fill="#E6E8EF"></path><path d="M710.987 664.458H711.011C713.769 664.458 716.006 662.227 716.006 659.472C716.006 656.717 713.769 654.487 711.011 654.487H710.987C708.23 654.487 705.992 656.717 705.992 659.472C705.992 662.227 708.227 664.458 710.987 664.458Z" fill="#E6E8EF"></path><path d="M685.233 664.458H685.257C688.015 664.458 690.252 662.227 690.252 659.472C690.252 656.717 688.015 654.487 685.257 654.487H685.233C682.476 654.487 680.238 656.717 680.238 659.472C680.238 662.227 682.473 664.458 685.233 664.458Z" fill="#E6E8EF"></path><path d="M658.331 393.47V385.513H653.906V393.47H645.935V397.886H653.906V405.843H658.331V397.886H666.302V393.47H658.331Z" fill="white"></path><path d="M244.205 760.561C242.89 760.561 241.604 761.093 240.672 762.021C239.742 762.948 239.21 764.235 239.21 765.545C239.21 766.857 239.742 768.141 240.672 769.069C241.602 769.997 242.89 770.528 244.205 770.528C245.52 770.528 246.806 769.997 247.736 769.069C248.665 768.141 249.198 766.857 249.198 765.545C249.198 764.232 248.665 762.948 247.736 762.021C246.808 761.095 245.52 760.561 244.205 760.561ZM269.972 760.561H269.948C267.191 760.561 264.953 762.792 264.953 765.547C264.953 768.3 267.188 770.533 269.948 770.533H269.972C272.73 770.533 274.967 768.3 274.967 765.547C274.967 762.795 272.732 760.561 269.972 760.561ZM244.205 735.099C242.89 735.099 241.604 735.63 240.672 736.558C239.742 737.486 239.21 738.77 239.21 740.085C239.21 741.397 239.742 742.681 240.672 743.609C241.602 744.537 242.89 745.071 244.205 745.071C245.52 745.071 246.806 744.539 247.736 743.609C248.665 742.681 249.198 741.397 249.198 740.085C249.198 738.772 248.665 737.486 247.736 736.558C246.808 735.63 245.52 735.099 244.205 735.099ZM269.948 745.068H269.972C272.73 745.068 274.967 742.837 274.967 740.082C274.967 737.328 272.732 735.097 269.972 735.097H269.948C267.191 735.097 264.953 737.328 264.953 740.082C264.953 742.837 267.191 745.068 269.948 745.068Z" fill="white"></path><path d="M584.282 827.275H572.852V863.81H584.282V827.275Z" fill="#1A4876"></path><path d="M353.23 827.275H341.8V863.81H353.23V827.275Z" fill="#1A4876"></path><path d="M631.349 853.345H294.732V870.966H631.349V853.345Z" fill="#072039"></path><path d="M772.968 887H8.03201C3.59574 887 0 883.411 0 878.983C0 874.555 3.59574 870.966 8.03201 870.966H772.968C777.404 870.966 781 874.555 781 878.983C781 883.411 777.404 887 772.968 887Z" fill="#9399AA"></path><path d="M729.835 448.918C735.29 451.341 739.091 456.796 739.074 463.135C739.05 471.71 732.066 478.636 723.492 478.611C714.906 478.587 707.972 471.623 707.996 463.049C708.013 456.709 711.835 451.277 717.302 448.885L717.553 359.853C712.1 357.43 708.307 351.976 708.326 345.637C708.341 340.454 710.906 335.87 714.838 333.074L714.8 346.714L723.846 351.966L732.911 346.764L732.949 333.124C736.866 335.944 739.416 340.54 739.402 345.723C739.385 352.062 735.551 357.495 730.083 359.887L729.835 448.918ZM734.684 463.123L733.289 463.097C733.282 462.135 733.142 461.207 732.887 460.33L734.228 459.933C733.927 458.916 733.489 457.945 732.906 457.056L731.726 457.808C731.23 457.029 730.616 456.325 729.915 455.719L730.837 454.664C730.028 453.959 729.132 453.385 728.162 452.95L727.584 454.221C726.741 453.842 725.854 453.58 724.915 453.447L725.113 452.055C724.604 451.986 724.082 451.95 723.559 451.947C723.017 451.945 722.473 451.981 721.946 452.058L722.148 453.452C721.206 453.589 720.32 453.846 719.487 454.233L718.906 452.947C717.931 453.387 717.045 453.969 716.23 454.668L717.158 455.729C716.452 456.332 715.845 457.032 715.335 457.818L714.147 457.058C713.572 457.952 713.126 458.923 712.83 459.938L714.181 460.33C713.93 461.205 713.776 462.111 713.774 463.061L712.379 463.077C712.377 464.135 712.524 465.195 712.825 466.21L714.178 465.813C714.436 466.722 714.834 467.565 715.33 468.332L714.15 469.097C714.72 469.984 715.421 470.796 716.218 471.489L717.141 470.433C717.842 471.042 718.62 471.539 719.472 471.931L718.884 473.215C719.857 473.659 720.883 473.955 721.931 474.109L722.129 472.717C722.584 472.784 723.037 472.828 723.513 472.83C723.988 472.832 724.443 472.789 724.908 472.727L725.098 474.121C726.158 473.972 727.177 473.674 728.15 473.234L727.569 471.948C728.414 471.561 729.204 471.066 729.898 470.465L730.825 471.525C731.627 470.825 732.333 470.027 732.909 469.133L731.721 468.373C732.222 467.597 732.612 466.755 732.884 465.849L734.236 466.253C734.525 465.241 734.679 464.193 734.684 463.123Z" fill="#E6E8EF"></path><defs><linearGradient id="paint0_linear" x1="649.407" y1="465.682" x2="613.221" y2="427.038" gradientUnits="userSpaceOnUse"><stop stop-color="#FF2969"></stop><stop offset="1" stop-color="#F77A1C"></stop></linearGradient></defs></svg>